<?xml version="1.0" standalone="no"?>
<svg xmlns:xlink="http://www.w3.org/1999/xlink" id="wave" style="transform:rotate(0deg); transition: 0.3s" viewBox="0 0 1440 160" version="1.1" xmlns="http://www.w3.org/2000/svg"><defs><linearGradient id="sw-gradient-0" x1="0" x2="0" y1="1" y2="0"><stop stop-color="rgba(255, 255, 255, 1)" offset="0%"/><stop stop-color="rgba(255, 255, 255, 1)" offset="100%"/></linearGradient></defs><path style="transform:translate(0, 0px); opacity:1" fill="url(#sw-gradient-0)" d="M0,80L80,66.7C160,53,320,27,480,37.3C640,48,800,96,960,106.7C1120,117,1280,91,1440,77.3C1600,64,1760,64,1920,61.3C2080,59,2240,53,2400,58.7C2560,64,2720,80,2880,74.7C3040,69,3200,43,3360,45.3C3520,48,3680,80,3840,77.3C4000,75,4160,37,4320,42.7C4480,48,4640,96,4800,112C4960,128,5120,112,5280,93.3C5440,75,5600,53,5760,58.7C5920,64,6080,96,6240,104C6400,112,6560,96,6720,98.7C6880,101,7040,123,7200,120C7360,117,7520,91,7680,85.3C7840,80,8000,96,8160,85.3C8320,75,8480,37,8640,24C8800,11,8960,21,9120,34.7C9280,48,9440,64,9600,82.7C9760,101,9920,123,10080,117.3C10240,112,10400,80,10560,64C10720,48,10880,48,11040,42.7C11200,37,11360,27,11440,21.3L11520,16L11520,160L11440,160C11360,160,11200,160,11040,160C10880,160,10720,160,10560,160C10400,160,10240,160,10080,160C9920,160,9760,160,9600,160C9440,160,9280,160,9120,160C8960,160,8800,160,8640,160C8480,160,8320,160,8160,160C8000,160,7840,160,7680,160C7520,160,7360,160,7200,160C7040,160,6880,160,6720,160C6560,160,6400,160,6240,160C6080,160,5920,160,5760,160C5600,160,5440,160,5280,160C5120,160,4960,160,4800,160C4640,160,4480,160,4320,160C4160,160,4000,160,3840,160C3680,160,3520,160,3360,160C3200,160,3040,160,2880,160C2720,160,2560,160,2400,160C2240,160,2080,160,1920,160C1760,160,1600,160,1440,160C1280,160,1120,160,960,160C800,160,640,160,480,160C320,160,160,160,80,160L0,160Z"/></svg>